<svg xmlns="http://www.w3.org/2000/svg"  viewBox="0 0 24 24" width="24px" height="24px"><path d="M 5 3 C 3.897 3 3 3.897 3 5 L 3 19 C 3 20.103 3.897 21 5 21 L 12.775391 21 C 12.716391 20.926 12.661516 20.838719 12.603516 20.761719 C 12.520516 20.653719 12.441328 20.539781 12.361328 20.425781 C 12.223328 20.229781 12.09475 20.030359 11.96875 19.818359 C 11.85475 19.626359 11.746484 19.427656 11.646484 19.222656 C 11.609484 19.145656 11.561344 19.078 11.527344 19 L 5 19 L 5 5 L 19 5 L 19 11.220703 C 19.482 11.089703 19.975422 11 20.482422 11 L 20.488281 11 L 20.490234 11 L 20.492188 11 C 20.664188 11 20.832953 11.021109 21.001953 11.037109 L 21.001953 5 C 21.001953 3.897 20.104953 3 19.001953 3 L 5 3 z M 7 7 L 7 9 L 9 9 L 9 7 L 7 7 z M 11 7 L 11 9 L 17 9 L 17 7 L 11 7 z M 7 11 L 7 13 L 9 13 L 9 11 L 7 11 z M 11 11 L 11 13 L 12.310547 13 C 13.237547 11.893 14.562 11.182063 16 11.039062 L 16 11 L 11 11 z M 16.511719 13 C 15.171719 13.002 13.92275 13.829922 13.34375 15.044922 C 12.02075 17.825922 14.860594 20.409719 15.933594 21.386719 L 16.113281 21.550781 C 16.849281 22.242781 18.498047 23.382813 18.498047 23.382812 C 18.498047 23.382812 20.148766 22.240781 20.884766 21.550781 L 21.064453 21.386719 C 22.138453 20.409719 24.978297 17.825922 23.654297 15.044922 C 23.075297 13.829922 21.826328 13.002 20.486328 13 L 20.482422 13 C 19.640422 13 18.976 13.275078 18.5 13.580078 C 18.025 13.275078 17.360578 13 16.517578 13 L 16.511719 13 z M 16.517578 14.998047 C 16.842578 14.998047 17.145922 15.087672 17.419922 15.263672 L 18.5 15.955078 L 19.580078 15.263672 C 19.853078 15.088672 20.156422 15 20.482422 15 L 20.484375 15 C 21.035375 15.001 21.596609 15.373297 21.849609 15.904297 C 22.463609 17.195297 20.928797 18.807156 19.716797 19.910156 L 19.517578 20.091797 C 19.291578 20.303797 18.904 20.610062 18.5 20.914062 C 18.092 20.607063 17.699891 20.295266 17.462891 20.072266 L 17.279297 19.90625 C 16.071297 18.80625 14.536391 17.194297 15.150391 15.904297 C 15.403391 15.372297 15.965578 14.999047 16.517578 14.998047 z M 7 15 L 7 17 L 9 17 L 9 15 L 7 15 z"/></svg>