<svg width="58" height="58" viewBox="0 0 58 58" fill="none" xmlns="http://www.w3.org/2000/svg">
<path d="M11.8762 50.8962L12.8252 51.3179L13.1932 50.3979C17.6083 53.6611 23.0742 55.5882 29 55.5882C35.1126 55.5882 40.736 53.5377 45.2213 50.0852L45.4716 50.7526L46.4045 50.4089L47.433 50.03C42.4868 54.3698 36.0199 57 29 57C22.1958 57 15.9644 54.5826 11.1165 50.5585L11.8762 50.8962ZM13.2344 47.8875C12.8683 47.5818 12.5113 47.2656 12.1638 46.9395C12.1818 46.928 12.1999 46.9165 12.2181 46.9051C13.1995 46.2871 14.3855 45.7306 15.6951 45.1161C15.8354 45.0503 15.977 44.9838 16.1199 44.9166C16.313 44.8257 16.5113 44.7331 16.7133 44.6389C17.9906 44.0425 19.4112 43.3793 20.5541 42.6626C21.2188 42.2458 21.8474 41.7765 22.3191 41.2454C22.7907 40.7144 23.1765 40.0395 23.1765 39.2353V36.6765V36.2081L22.8167 35.9083C21.895 35.1402 20.3955 33.4727 20.0982 31.0936L20.0556 30.7532L19.813 30.5105C18.9706 29.6681 17.8882 28.3897 17.8882 26.7824C17.8882 25.8535 18.2872 25.0264 18.6356 24.3296L18.801 23.9987L18.7113 23.6398C18.391 22.3584 18.0588 19.8812 18.0588 17.9118C18.0588 14.8251 19.1211 12.3299 20.9629 10.6021C22.8105 8.86878 25.5334 7.82353 29 7.82353C29.9481 7.82353 30.9997 7.94291 31.9538 8.22915C32.9154 8.51762 33.7064 8.95353 34.2232 9.53495L34.4421 9.78125L34.7646 9.84914C37.4086 10.4058 39.9412 13.6264 39.9412 17.9118C39.9412 20.7015 39.4476 22.9963 39.1267 24.1194L38.9997 24.564L39.2562 24.9488C39.4972 25.3103 39.7706 25.9725 39.7706 26.7824C39.7706 28.6248 38.7794 29.8648 37.9982 30.3856L37.6174 30.6395L37.5607 31.0936C37.2615 33.4867 35.9188 34.9826 35.0128 35.7377L34.6529 36.0375V36.5059V39.2353C34.6529 39.9742 35.0255 40.5722 35.4544 41.0185C35.8833 41.4646 36.4494 41.8463 37.0423 42.177C38.2285 42.8386 39.7517 43.4183 41.1018 43.9246L41.1072 43.9266C42.7335 44.5257 44.3162 45.138 45.6354 45.9175C45.9019 46.075 46.1534 46.2369 46.3891 46.4041C46.0664 46.7264 45.7348 47.0398 45.3947 47.3439C45.0764 47.1349 44.7307 46.9422 44.3737 46.7637C43.2412 46.1974 41.8638 45.7105 40.5878 45.285C38.6834 44.5925 36.8135 43.9089 35.4053 42.9505C34.0331 42.0167 33.2412 40.9224 33.2412 39.4059V35.5368L33.6086 35.3163L33.629 35.3041L33.6488 35.2909L33.0941 34.4588C33.6488 35.2909 33.6492 35.2906 33.6496 35.2904L33.6504 35.2898L33.6522 35.2886L33.6564 35.2858L33.6669 35.2786C33.6749 35.2731 33.6849 35.2662 33.6966 35.2578C33.7202 35.2411 33.751 35.2186 33.7881 35.1903C33.8623 35.1338 33.9619 35.0539 34.0783 34.9504C34.3105 34.744 34.6145 34.4396 34.9176 34.0353C35.5263 33.2238 36.1412 31.9949 36.1412 30.3647V29.7886L36.5045 29.607C36.5645 29.5889 36.6126 29.5697 36.645 29.5561C36.7526 29.5109 36.8558 29.4533 36.9513 29.3896C37.1438 29.2613 37.3445 29.0822 37.5268 28.8502C37.9009 28.3741 38.1882 27.687 38.1882 26.7824C38.1882 26.3447 37.9941 25.9435 37.8705 25.721C37.7324 25.4724 37.5519 25.22 37.3836 25.0517L36.6765 25.7588L37.3836 25.0517L37.1675 24.8356L37.2638 24.5949L37.2782 24.5589L37.2898 24.5218L36.3353 24.2235C37.2898 24.5218 37.2898 24.5216 37.2899 24.5214L37.29 24.521L37.2903 24.52L37.2912 24.5171L37.2939 24.5085L37.3027 24.4794C37.3101 24.4548 37.3204 24.42 37.3332 24.3754C37.3588 24.2861 37.3944 24.1577 37.4367 23.9941C37.5213 23.6672 37.6327 23.1987 37.7438 22.6212C37.9654 21.4688 38.1882 19.8682 38.1882 18.0824C38.1882 16.2737 37.6658 14.6735 36.8929 13.5016C36.155 12.3829 35.0381 11.4529 33.7765 11.4529H33.3191L33.2079 11.2676C33.0515 10.5043 32.3735 10.0151 31.8073 9.75381C31.0851 9.42048 30.1219 9.23529 29 9.23529C26.1796 9.23529 23.7851 10.0098 22.0838 11.5385C20.3693 13.0791 19.4706 15.286 19.4706 17.9118C19.4706 19.1144 19.698 20.6808 19.9121 21.9015C20.0209 22.5215 20.1295 23.0701 20.211 23.4639C20.2518 23.661 20.2858 23.8198 20.3098 23.9298C20.3218 23.9849 20.3313 24.0278 20.3379 24.0572L20.3454 24.0905L20.3455 24.0912L20.4221 24.4745L20.1696 24.7901C20.0731 24.8552 19.9957 24.9264 19.9365 24.9884C19.7948 25.1369 19.6829 25.3114 19.5975 25.4822C19.4242 25.8288 19.3 26.2799 19.3 26.7824C19.3 27.5593 19.7373 28.2549 20.0909 28.7027C20.4605 29.1709 20.9073 29.5779 21.2553 29.815L21.5176 30.0118V30.3647C21.5176 31.9512 22.2089 33.1485 22.8504 33.9379C23.1715 34.3332 23.4886 34.6369 23.7105 34.8418C23.7191 34.8497 23.7273 34.8573 23.7353 34.8646V35.025L24.2208 35.3163L24.5882 35.5368V39.4059C24.5882 41.027 23.7324 42.3004 22.2522 43.43C20.7539 44.5734 18.7469 45.4659 16.6952 46.3211C15.7304 46.673 14.5857 47.1571 13.6232 47.6719C13.4916 47.7423 13.3616 47.8142 13.2344 47.8875ZM23.958 35.0708C23.9579 35.0706 23.9577 35.0705 23.9575 35.0702L23.958 35.0708ZM57 29C57 36.0737 54.3513 42.5295 50.013 47.4551C49.7893 47.0331 49.5219 46.645 49.2206 46.2866C53.1926 41.6421 55.5882 35.6069 55.5882 29C55.5882 14.2846 43.5362 2.41176 29 2.41176C14.2889 2.41176 2.41176 14.2889 2.41176 29C2.41176 35.8462 4.98406 42.0787 9.21721 46.7859C8.89416 47.1474 8.61624 47.5436 8.40231 47.9817C3.80521 42.9947 1 36.3297 1 29C1 13.517 13.517 1 29 1C44.483 1 57 13.517 57 29Z" fill="#CFCFCF" stroke="#A2A2A2" stroke-width="2"/>
</svg>

